<svg width="20" height="20" viewBox="0 0 20 20" fill="none" xmlns="http://www.w3.org/2000/svg">
<g id="Icon right">
<path id="Vector" d="M8.59111 11.4102L12.6296 7.37179M16.7607 4.90719L13.3518 15.986C13.0464 16.9789 12.8935 17.4755 12.63 17.6402C12.4015 17.783 12.1185 17.8068 11.8696 17.7036C11.5826 17.5845 11.3496 17.1194 10.8849 16.19L8.72579 11.8717C8.65205 11.7242 8.61514 11.6508 8.56588 11.5869C8.52217 11.5302 8.47172 11.4791 8.41501 11.4354C8.35256 11.3872 8.28035 11.3511 8.13944 11.2807L3.81124 9.11658C2.88182 8.65187 2.41706 8.4193 2.29797 8.13228C2.19469 7.88337 2.21825 7.60015 2.36104 7.3716C2.5257 7.10807 3.02233 6.95498 4.0155 6.64939L15.0943 3.24052C15.8751 3.00027 16.2657 2.88025 16.5294 2.97707C16.7591 3.0614 16.9402 3.24233 17.0246 3.47205C17.1213 3.73565 17.0012 4.12601 16.7612 4.90603L16.7607 4.90719Z" stroke="#616161" stroke-opacity="0.7" stroke-width="2" stroke-linecap="round" stroke-linejoin="round"/>
</g>
</svg>
