<svg width="17" height="21" viewBox="0 0 17 21" fill="none" xmlns="http://www.w3.org/2000/svg">
<path fill-rule="evenodd" clip-rule="evenodd" d="M8.17515 10.53C8.7216 9.76303 8.66062 8.9553 8.28171 7.50235C7.53234 4.62882 7.83074 3.05383 10.4141 1.18916L11.675 0.279053L11.9799 1.80389C12.304 3.42441 12.8363 4.42671 14.2029 6.35464C14.2572 6.43122 14.2572 6.43122 14.3118 6.50815C16.2803 9.28542 16.9993 10.9596 16.9993 14C16.9993 17.6884 13.2707 21 8.99935 21C4.72776 21 0.999349 17.6888 0.999349 14C0.999349 13.9311 0.999419 13.9331 0.987737 13.6285C0.897382 11.2718 1.33316 9.42737 3.09642 7.43586C3.46896 7.01509 3.89243 6.61068 4.36898 6.22371L5.42097 5.36946L5.92701 6.62658C6.30093 7.55547 6.73905 8.28567 7.23396 8.82151C7.65313 9.27536 7.96409 9.84607 8.17515 10.53ZM4.59383 8.76166C3.23647 10.2947 2.91376 11.6606 2.98627 13.5518C2.99977 13.9039 2.99935 13.8915 2.99935 14C2.99935 16.5279 5.78295 19 8.99935 19C12.2155 19 14.9993 16.5275 14.9993 14C14.9993 11.4582 14.4311 10.135 12.6801 7.6647C12.6258 7.58818 12.6258 7.58818 12.5713 7.51125C11.5079 6.01111 10.874 4.96759 10.4547 3.80052C9.76983 4.62118 9.81009 5.43739 10.217 6.99766C10.9664 9.87118 10.668 11.4462 8.08462 13.3108L6.61162 14.3741L6.5012 12.5608C6.43065 11.4023 6.16841 10.6156 5.76474 10.1785C5.36591 9.74668 5.00582 9.24115 4.6829 8.66279C4.65278 8.69566 4.62309 8.72862 4.59383 8.76166Z" fill="#1C1C1C"/>
</svg>
