<svg width="24" height="24" viewBox="0 0 24 24" fill="none" xmlns="http://www.w3.org/2000/svg">
<path d="M7 17.3336V6.66698C7 5.78742 7 5.34715 7.18509 5.08691C7.34664 4.85977 7.59564 4.71064 7.87207 4.67499C8.18868 4.63415 8.57701 4.84126 9.35254 5.25487L19.3525 10.5882L19.3562 10.5898C20.2132 11.0469 20.642 11.2756 20.7826 11.5803C20.9053 11.8462 20.9053 12.1531 20.7826 12.4189C20.6418 12.7241 20.212 12.9537 19.3525 13.4121L9.35254 18.7454C8.57645 19.1593 8.1888 19.3657 7.87207 19.3248C7.59564 19.2891 7.34664 19.1401 7.18509 18.9129C7 18.6527 7 18.2132 7 17.3336Z" fill="white" stroke="white" stroke-width="2" stroke-linecap="round" stroke-linejoin="round"/>
</svg>
