<svg width="80" height="80" viewBox="0 0 80 80" fill="none" xmlns="http://www.w3.org/2000/svg">
<rect width="80" height="80" rx="40" fill="#1C1C1C"/>
<path d="M21.9766 56.1641C21.9766 55.9141 22.0781 55.625 22.2812 55.2969L28.75 44.6328C24.3281 42.7109 22.125 39.4453 22.1406 34.8359C22.1406 31.3516 23.3438 28.6562 25.75 26.75C28.1719 24.8438 31.2031 23.8906 34.8438 23.8906H53.1953C53.7734 23.8906 54.2656 24.1016 54.6719 24.5234C55.0938 24.9453 55.3047 25.4609 55.3047 26.0703V55.3438C55.3047 55.9531 55.0859 56.4688 54.6484 56.8906C54.2266 57.2969 53.7109 57.5 53.1016 57.5H48.6719C48.0625 57.5 47.5391 57.2891 47.1016 56.8672C46.6797 56.4297 46.4688 55.9062 46.4688 55.2969V45.5938H38.0781L32.4531 55.3438C31.6562 56.7812 30.5234 57.5 29.0547 57.5H23.1484C22.3672 57.5 21.9766 57.0547 21.9766 56.1641ZM34.8438 30.5234C32.25 30.5234 30.9531 31.8984 30.9531 34.6484C30.9531 37.3984 32.25 38.7734 34.8438 38.7734H46.4688V30.5234H34.8438Z" fill="white"/>
</svg>
