<svg width="28" height="28" viewBox="0 0 28 28" fill="none" xmlns="http://www.w3.org/2000/svg">
<path d="M4.66602 8.40031V19.6003C4.66602 20.9071 4.66602 21.5602 4.92033 22.0593C5.14404 22.4983 5.50073 22.8556 5.93978 23.0793C6.43842 23.3334 7.09151 23.3334 8.39574 23.3334H19.603C20.9072 23.3334 21.5593 23.3334 22.058 23.0793C22.497 22.8556 22.8549 22.4983 23.0786 22.0593C23.3327 21.5606 23.3327 20.9085 23.3327 19.6043V8.39648C23.3327 7.09224 23.3327 6.43915 23.0786 5.94051C22.8549 5.50147 22.497 5.14477 22.058 4.92107C21.5588 4.66675 20.9064 4.66675 19.5996 4.66675H8.39958C7.09279 4.66675 6.43891 4.66675 5.93978 4.92107C5.50073 5.14477 5.14404 5.50147 4.92033 5.94051C4.66602 6.43964 4.66602 7.09352 4.66602 8.40031Z" stroke="#1C1C1C" stroke-width="2" stroke-linecap="round" stroke-linejoin="round"/>
</svg>
