<svg width="28" height="28" viewBox="0 0 28 28" fill="none" xmlns="http://www.w3.org/2000/svg">
<g id="Icon left">
<path id="Vector" d="M9.33268 14.0001L12.8327 17.5001L18.666 10.5001M4.66602 19.6003V8.40031C4.66602 7.09352 4.66602 6.43964 4.92033 5.94051C5.14404 5.50147 5.50073 5.14477 5.93978 4.92107C6.43891 4.66675 7.09279 4.66675 8.39958 4.66675H19.5996C20.9064 4.66675 21.5588 4.66675 22.058 4.92107C22.497 5.14477 22.8549 5.50147 23.0786 5.94051C23.3327 6.43915 23.3327 7.09224 23.3327 8.39648V19.6043C23.3327 20.9085 23.3327 21.5606 23.0786 22.0593C22.8549 22.4983 22.497 22.8556 22.058 23.0793C21.5593 23.3334 20.9072 23.3334 19.603 23.3334H8.39574C7.09151 23.3334 6.43842 23.3334 5.93978 23.0793C5.50073 22.8556 5.14404 22.4983 4.92033 22.0593C4.66602 21.5602 4.66602 20.9071 4.66602 19.6003Z" stroke="#1C1C1C" stroke-width="2" stroke-linecap="round" stroke-linejoin="round"/>
</g>
</svg>
