<svg width="39" height="39" viewBox="0 0 39 39" fill="none" xmlns="http://www.w3.org/2000/svg">
<path fill-rule="evenodd" clip-rule="evenodd" d="M5.64158 20.3611C5.41335 20.1326 5.28516 19.8228 5.28516 19.4999C5.28516 19.1769 5.41335 18.8671 5.64158 18.6386L15.3916 8.88862C15.5032 8.76888 15.6377 8.67284 15.7872 8.60623C15.9367 8.53962 16.0981 8.5038 16.2617 8.50091C16.4254 8.49803 16.5879 8.52813 16.7397 8.58942C16.8914 8.65072 17.0293 8.74195 17.145 8.85768C17.2607 8.97342 17.352 9.11127 17.4133 9.26303C17.4746 9.41478 17.5047 9.57733 17.5018 9.74097C17.4989 9.90461 17.4631 10.066 17.3965 10.2155C17.3299 10.365 17.2338 10.4995 17.1141 10.6111L9.44408 18.2811L32.5028 18.2811C32.8261 18.2811 33.1361 18.4095 33.3646 18.6381C33.5932 18.8666 33.7216 19.1766 33.7216 19.4999C33.7216 19.8231 33.5932 20.1331 33.3646 20.3617C33.1361 20.5902 32.8261 20.7186 32.5028 20.7186L9.44408 20.7186L17.1141 28.3886C17.2338 28.5002 17.3299 28.6347 17.3965 28.7842C17.4631 28.9337 17.4989 29.0951 17.5018 29.2588C17.5047 29.4224 17.4746 29.585 17.4133 29.7367C17.352 29.8885 17.2608 30.0263 17.145 30.1421C17.0293 30.2578 16.8914 30.349 16.7397 30.4103C16.5879 30.4716 16.4254 30.5017 16.2617 30.4988C16.0981 30.4959 15.9367 30.4601 15.7872 30.3935C15.6377 30.3269 15.5032 30.2309 15.3916 30.1111L5.64158 20.3611Z" fill="white"/>
</svg>
