<svg width="24" height="24" viewBox="0 0 24 24" fill="none" xmlns="http://www.w3.org/2000/svg">
<g id="Telegram">
<path id="Vector" d="M15.1125 9.29079C15.6645 8.73879 16.2125 7.45079 13.9125 9.01479C11.7639 10.4935 9.60081 11.9509 7.42345 13.3868C7.09189 13.5367 6.73345 13.6181 6.36965 13.626C6.00585 13.6339 5.64421 13.5682 5.30645 13.4328C3.92645 13.0188 2.31545 12.4668 2.31545 12.4668C2.31545 12.4668 1.21545 11.7758 3.09845 11.0398C3.09845 11.0398 11.0595 7.77279 13.8205 6.62179C14.8785 6.16179 18.4675 4.68979 18.4675 4.68979C18.4675 4.68979 20.1245 4.04479 19.9865 5.60979C19.9405 6.25379 19.5725 8.50979 19.2045 10.9478C18.6515 14.3988 18.0535 18.1728 18.0535 18.1728C18.0535 18.1728 17.9615 19.2308 17.1795 19.4148C16.3423 19.4006 15.5335 19.1094 14.8795 18.5868C14.6955 18.4488 11.4285 16.3778 10.2315 15.3658C10.1097 15.2833 10.0108 15.1714 9.94389 15.0404C9.87701 14.9094 9.84435 14.7636 9.84894 14.6166C9.85353 14.4696 9.89522 14.3262 9.97015 14.1996C10.0451 14.0731 10.1508 13.9675 10.2775 13.8928C11.9192 12.3907 13.5312 10.8564 15.1125 9.29079Z" fill="white"/>
</g>
</svg>
