<svg width="40" height="40" viewBox="0 0 40 40" fill="none" xmlns="http://www.w3.org/2000/svg">
<rect width="40" height="40" rx="20" fill="#BDBDBD"/>
<path d="M23.3008 12.7812H25.1758V22.4004C25.1758 23.4681 24.9382 24.3568 24.4629 25.0664C23.9876 25.776 23.3561 26.3099 22.5684 26.668C21.7871 27.0195 20.9375 27.1953 20.0195 27.1953C19.056 27.1953 18.1836 27.0195 17.4023 26.668C16.6276 26.3099 16.0124 25.776 15.5566 25.0664C15.1074 24.3568 14.8828 23.4681 14.8828 22.4004V12.7812H16.748V22.4004C16.748 23.1426 16.8848 23.7546 17.1582 24.2363C17.4316 24.7181 17.8125 25.0762 18.3008 25.3105C18.7956 25.5449 19.3685 25.6621 20.0195 25.6621C20.6771 25.6621 21.25 25.5449 21.7383 25.3105C22.2331 25.0762 22.6172 24.7181 22.8906 24.2363C23.1641 23.7546 23.3008 23.1426 23.3008 22.4004V12.7812Z" fill="white"/>
</svg>
