<svg width="24" height="24" viewBox="0 0 24 24" fill="none" xmlns="http://www.w3.org/2000/svg">
<g id="Vk" clip-path="url(#clip0_1513_8989)">
<path id="Vector" d="M11.7423 18.0389H13.1763C13.1763 18.0389 13.6098 17.9909 13.8303 17.7524C14.0343 17.5334 14.0268 17.1224 14.0268 17.1224C14.0268 17.1224 13.9983 15.1979 14.8923 14.9144C15.7728 14.6354 16.9038 16.7744 18.1023 17.5979C19.0083 18.2204 19.6968 18.0839 19.6968 18.0839L22.9023 18.0389C22.9023 18.0389 24.5793 17.9354 23.7843 16.6169C23.7198 16.5089 23.3208 15.6419 21.4008 13.8599C19.3908 11.9939 19.6608 12.2969 22.0818 9.07044C23.5563 7.10544 24.1458 5.90544 23.9613 5.39244C23.7858 4.90344 22.7013 5.03244 22.7013 5.03244L19.0953 5.05344C19.0953 5.05344 18.8283 5.01744 18.6288 5.13594C18.4353 5.25294 18.3108 5.52294 18.3108 5.52294C18.3108 5.52294 17.7393 7.04394 16.9773 8.33694C15.3708 11.0654 14.7273 11.2094 14.4648 11.0399C13.8543 10.6454 14.0073 9.45294 14.0073 8.60694C14.0073 5.96244 14.4078 4.85994 13.2258 4.57494C12.8328 4.48044 12.5448 4.41744 11.5413 4.40694C10.2543 4.39344 9.16383 4.41144 8.54733 4.71294C8.13633 4.91394 7.81983 5.36244 8.01333 5.38794C8.25183 5.41944 8.79183 5.53344 9.07833 5.92344C9.44883 6.42594 9.43534 7.55694 9.43534 7.55694C9.43534 7.55694 9.64833 10.6694 8.93884 11.0564C8.45133 11.3219 7.78383 10.7804 6.35134 8.30394C5.61784 7.03644 5.06283 5.63394 5.06283 5.63394C5.06283 5.63394 4.95633 5.37294 4.76583 5.23344C4.53483 5.06394 4.21083 5.00994 4.21083 5.00994L0.781835 5.03094C0.781835 5.03094 0.267335 5.04594 0.0783349 5.26944C-0.0896651 5.46894 0.0648349 5.87994 0.0648349 5.87994C0.0648349 5.87994 2.74983 12.1604 5.78883 15.3269C8.57733 18.2294 11.7423 18.0389 11.7423 18.0389Z" fill="white"/>
</g>
<defs>
<clipPath id="clip0_1513_8989">
<rect width="24" height="24" fill="white"/>
</clipPath>
</defs>
</svg>
