<svg width="39" height="32" viewBox="0 0 39 32" fill="none" xmlns="http://www.w3.org/2000/svg">
<rect width="39" height="32" rx="10" fill="white"/>
<path d="M4.95508 24.7422V7.69336C4.95508 7.33789 5.08268 7.03255 5.33789 6.77734C5.5931 6.52214 5.89844 6.39453 6.25391 6.39453H8.79688C9.17057 6.39453 9.48047 6.52214 9.72656 6.77734C9.98177 7.03255 10.1094 7.33789 10.1094 7.69336V24.7148C10.1094 25.0703 9.97721 25.3757 9.71289 25.6309C9.45768 25.877 9.15234 26 8.79688 26H6.25391C5.89844 26 5.5931 25.8815 5.33789 25.6445C5.08268 25.3984 4.95508 25.0977 4.95508 24.7422ZM14.0332 24.7422V7.7207C14.0332 7.34701 14.1608 7.03255 14.416 6.77734C14.6712 6.52214 14.9766 6.39453 15.332 6.39453H22.9746C26.9303 6.39453 29.806 7.1875 31.6016 8.77344C33.4062 10.3503 34.3086 12.8294 34.3086 16.2109C34.3086 19.5833 33.4062 22.0579 31.6016 23.6348C29.806 25.2116 26.9303 26 22.9746 26H15.332C14.9766 26 14.6712 25.8815 14.416 25.6445C14.1608 25.3984 14.0332 25.0977 14.0332 24.7422ZM19.1875 22.1309H22.8242C25.276 22.1309 26.944 21.6842 27.8281 20.791C28.7122 19.8978 29.1543 18.3711 29.1543 16.2109C29.1543 14.0417 28.7122 12.5104 27.8281 11.6172C26.944 10.7148 25.276 10.2637 22.8242 10.2637H19.1875V22.1309Z" fill="#1C1C1C"/>
</svg>
